<svg xmlns="http://www.w3.org/2000/svg" version="1.1" xmlns:xlink="http://www.w3.org/1999/xlink" xmlns:svgjs="http://svgjs.com/svgjs" width="1440" height="560" preserveAspectRatio="none" viewBox="0 0 1440 560"><g mask="url(&quot;#SvgjsMask1244&quot;)" fill="none"><rect width="1440" height="560" x="0" y="0" fill="url(#SvgjsLinearGradient1245)"></rect><path d="M890.542,192.615C914.464,194.285,939.025,181.904,949.35,160.26C958.743,140.569,946.236,119.297,934.196,101.103C923.785,85.37,909.396,72.071,890.542,71.389C870.525,70.665,850.914,80.3,841.053,97.735C831.326,114.933,835.283,135.417,844.42,152.935C854.472,172.208,868.858,191.101,890.542,192.615" fill="rgba(28, 83, 142, 0.4)" class="triangle-float2"></path><path d="M750.36,551.9C777.072,552.543,805.997,546.789,819.69,523.844C833.636,500.475,827.106,470.894,812.352,448.026C798.872,427.132,775.215,415.694,750.36,416.386C726.701,417.045,706.422,431.128,694.071,451.318C681.072,472.567,674.417,498.903,686.582,520.64C698.975,542.784,724.991,551.289,750.36,551.9" fill="rgba(28, 83, 142, 0.4)" class="triangle-float3"></path><path d="M588.4372665880347 397.6020379426667L736.617981575328 415.79634196666 606.631570612028 249.42132295537337z" fill="rgba(28, 83, 142, 0.4)" class="triangle-float1"></path><path d="M816.5031684030232 329.81251737286897L933.7069929699198 428.3486985369874 959.2471681471203 296.95588776053506z" fill="rgba(28, 83, 142, 0.4)" class="triangle-float2"></path><path d="M1032.8494966404155 128.0716952332184L999.1190989281598 30.111507288953916 901.1589109838953 63.84190500120958 934.889308696151 161.80209294547407z" fill="rgba(28, 83, 142, 0.4)" class="triangle-float2"></path><path d="M1023.201,360.761C1056.263,361.498,1090.394,350.814,1107.489,322.505C1125.082,293.372,1120.87,256.75,1103.785,227.316C1086.774,198.01,1057.004,174.945,1023.201,177.299C992.125,179.463,975,210.049,959.966,237.332C945.675,263.266,931.679,292.532,945.181,318.886C959.605,347.041,991.574,360.056,1023.201,360.761" fill="rgba(28, 83, 142, 0.4)" class="triangle-float1"></path><path d="M88.40609556386825 265.5295922982222L33.597889233105555 415.6685435574847 171.5943452414507 393.81205210583346z" fill="rgba(28, 83, 142, 0.4)" class="triangle-float3"></path><path d="M495.5227396343666 239.3235358329075L382.37733817223335 251.10658644739814 439.41479256440067 332.5645132472162z" fill="rgba(28, 83, 142, 0.4)" class="triangle-float3"></path><path d="M997.0715358582083 413.1746248149533L1057.8980478656702 322.99561226191867 906.8925233051738 352.34811280749136z" fill="rgba(28, 83, 142, 0.4)" class="triangle-float2"></path><path d="M142.87006870068294 202.16481272459893L28.024499039337584 187.952436493012 65.91929300162059 281.7453428419779z" fill="rgba(28, 83, 142, 0.4)" class="triangle-float2"></path><path d="M750.4692698850729 503.5388444872432L820.5467080522583 438.1905761984636 687.4855865354962 365.7485530920753z" fill="rgba(28, 83, 142, 0.4)" class="triangle-float2"></path><path d="M467.91731640513547 161.73464366326877L463.1061592459492 92.93189082115565 362.30760856237265 134.55000298099165z" fill="rgba(28, 83, 142, 0.4)" class="triangle-float3"></path><path d="M832.2405991207419 108.82314129319087L945.131372558771 166.34386337297636 889.7613212005274-4.067632144838271z" fill="rgba(28, 83, 142, 0.4)" class="triangle-float2"></path></g><defs><mask id="SvgjsMask1244"><rect width="1440" height="560" fill="#ffffff"></rect></mask><linearGradient x1="0%" y1="50%" x2="100%" y2="50%" gradientUnits="userSpaceOnUse" id="SvgjsLinearGradient1245"><stop stop-color="#0e2a47" offset="0"></stop><stop stop-color="rgba(52, 59, 37, 1)" offset="1"></stop></linearGradient></defs></svg>